<svg width="788" height="890" viewBox="0 0 788 890" fill="none" xmlns="http://www.w3.org/2000/svg">
<mask id="path-1-inside-1_83_12" fill="white">
<path d="M46 30C46 13.4315 59.4315 0 76 0H712C728.569 0 742 13.4315 742 30V673H46V30Z"/>
</mask>
<path d="M46 30C46 13.4315 59.4315 0 76 0H712C728.569 0 742 13.4315 742 30V673H46V30Z" fill="white"/>
<path d="M45 30C45 12.8792 58.8792 -1 76 -1H712C729.121 -1 743 12.8792 743 30H741C741 13.9837 728.016 1 712 1H76C59.9837 1 47 13.9837 47 30H45ZM742 673H46H742ZM45 673V30C45 12.8792 58.8792 -1 76 -1V1C59.9837 1 47 13.9837 47 30V673H45ZM712 -1C729.121 -1 743 12.8792 743 30V673H741V30C741 13.9837 728.016 1 712 1V-1Z" fill="black" mask="url(#path-1-inside-1_83_12)"/>
<line x1="1.13817" y1="659.519" x2="394.138" y2="772.519" stroke="black"/>
<line y1="-0.5" x2="408.923" y2="-0.5" transform="matrix(-0.961061 0.276336 0.276336 0.961061 787 660)" stroke="black"/>
<line x1="0.814305" y1="659.536" x2="45.8143" y2="641.536" stroke="black"/>
<line y1="-0.5" x2="48.4665" y2="-0.5" transform="matrix(-0.928477 -0.371391 -0.371391 0.928477 787 660)" stroke="black"/>
<line x1="2" y1="659.5" x2="46" y2="659.5" stroke="black"/>
<line y1="-0.5" x2="44" y2="-0.5" transform="matrix(-1 0 0 1 786 660)" stroke="black"/>
<line x1="2.5" y1="660" x2="2.5" y2="890" stroke="black"/>
<line x1="786.5" y1="660" x2="786.5" y2="890" stroke="black"/>
</svg>
